<svg clip-rule="evenodd" fill-rule="evenodd" height="850" image-rendering="optimizeQuality" shape-rendering="geometricPrecision" text-rendering="geometricPrecision" viewBox="0 0 850 850" width="850" xmlns="http://www.w3.org/2000/svg" xmlns:xlink="http://www.w3.org/1999/xlink"><linearGradient id="id0" gradientUnits="userSpaceOnUse" x1="-.001" x2="850.001" y1="425" y2="425"><stop offset="0" stop-color="#26a9e0"/><stop offset=".0901961" stop-color="#2297d3"/><stop offset=".231373" stop-color="#1e84c6"/><stop offset=".368627" stop-color="#1c79be"/><stop offset=".521569" stop-color="#1b75bb"/><stop offset=".960784" stop-color="#2b388f"/><stop offset="1" stop-color="#2b388f"/></linearGradient><circle cx="425" cy="425" fill="url(#id0)" r="425.001"/><g id="Layer_x0020_1"><g id="_421940032" fill="#fefefe"><path id="_421936552" d="m534.453 619.466h-68.0363c4.41969 0 7.99843-3.58111 7.99843-7.99843v-61.7233c0-18.3225-14.9055-33.2233-33.2185-33.2233h-16.3335-16.3311c-18.1677 0-32.9469 14.7803-32.9469 32.9469v61.9997c0 4.41969 3.57874 7.99843 7.99843 7.99843h-68.0316c-4.41969 0-7.99843-3.57874-7.99843-7.99843v-321.25c0-4.41969 3.57874-7.99843 7.99843-7.99843h218.903c4.41969 0 7.99843 3.57874 7.99843 7.99843v321.25c-.00236221 4.41733-3.58111 7.99843-8.00079 7.99843zm-142.871-15.9957h25.2827v-70.9524h-8.33268c-9.34725 0-16.95 7.60276-16.95 16.95v54.0024zm41.2796 0h25.5567v-53.726c0-9.49962-7.72324-17.2264-17.2217-17.2264h-8.33505v70.9524zm54.143-118.759h-124.004c-4.41969 0-7.99843-3.57874-7.99843-7.99843v-69.515-69.5197c0-4.41969 3.57874-7.99843 7.99843-7.99843h124.004c4.41969 0 7.99843 3.57874 7.99843 7.99843v69.5197 69.515c0 4.41969-3.58347 7.99843-7.99843 7.99843zm-116.007-15.9969h108.008v-53.5182h-108.008zm108.008-69.515v-53.5229h-108.008v53.5229z"/><path id="_421936696" d="m366.22 266.221v-27.6886c0-4.41969 3.57874-7.99843 7.99843-7.99843h101.563c4.41969 0 7.99843 3.57874 7.99843 7.99843v27.6886h-117.56z"/><path id="_421936816" d="m672.949 619.466h-495.898c-4.41969 0-7.99843-3.57874-7.99843-7.99843 0-4.41851 3.57874-7.99725 7.99843-7.99725h495.898c4.41851 0 7.99843 3.57874 7.99843 7.99725 0 4.41969-3.58229 7.99843-7.99843 7.99843z"/><path id="_421936624" d="m575.004 325.204v-27.6862c0-4.41969 3.57992-7.99843 7.99843-7.99843h50.9115c4.41969 0 7.99843 3.57874 7.99843 7.99843v27.6862h-66.9083z"/><path id="_421936768" d="m662.467 619.466h-105.383c.884646-2.50276 1.3689-5.19449 1.3689-7.99843v-37.004h53.8075c4.42087 0 7.99961-3.57874 7.99843-7.99725v-63.0756c0-4.41969-3.57874-7.99843-7.99843-7.99843l-53.8075-.0011811v-30.1217h53.8075c4.42087 0 7.99961-3.57874 7.99843-7.99843v-63.0697c0-4.41969-3.57874-7.99843-7.99843-7.99843h-53.8075v-45h104.014c4.41969 0 7.99843 3.57874 7.99843 7.99843v262.266c0 4.41733-3.58111 7.99843-7.99843 7.99843zm-104.014-170.193v-47.0729h45.8091v47.0729zm0 109.194v-47.0776l45.8091-.0011811v47.0788h-45.8091z"/><path id="_421936408" d="m292.922 619.466h-105.382c-4.41969 0-7.99843-3.57874-7.99843-7.99843v-262.266c0-4.41969 3.57874-7.99843 7.99843-7.99843h104.014v45h-53.8123c-4.41969 0-7.99843 3.57874-7.99843 7.99843v63.0697c0 4.41969 3.57874 7.99843 7.99843 7.99843h53.8123v30.1229l-53.8123-.0011811c-4.41969 0-7.99843 3.57874-7.99843 7.99843v63.0756c0 4.41969 3.57874 7.99843 7.99843 7.99843h53.8123v37.004c0 2.80512.483071 5.49567 1.36772 7.99843zm-1.36772-217.266v47.0729h-45.8138v-47.0729zm0 109.188v47.0788h-45.8138v-47.0776l45.8138-.0011811z"/><path id="_421939960" d="m208.088 325.204v-27.6862c0-4.41969 3.57874-7.99843 7.99843-7.99843h50.9103c4.41969 0 7.99843 3.57874 7.99843 7.99843v27.6862h-66.9071z"/></g></g></svg>