<svg xmlns="http://www.w3.org/2000/svg" templateVersion="1.1" xmlns:xlink="http://www.w3.org/1999/xlink" width="24" height="24" x="0" y="0" viewBox="0 0 512 512" style="enable-background:new 0 0 512 512" xml:space="preserve" class=""><g><path fill-rule="evenodd" d="M480.235 295.764c-47.263 0-70.976 57.258-37.558 90.675a15.767 15.767 0 0 1 0 22.3l-33.941 33.942a15.77 15.77 0 0 1-22.3 0c-33.417-33.418-90.675-9.705-90.675 37.558A15.764 15.764 0 0 1 280 496h-48a15.764 15.764 0 0 1-15.765-15.765c0-47.321-57.215-71.018-90.675-37.558a15.769 15.769 0 0 1-22.3 0l-33.937-33.942a15.769 15.769 0 0 1 0-22.3c33.418-33.417 9.705-90.675-37.558-90.675A15.764 15.764 0 0 1 16 280v-48a15.764 15.764 0 0 1 15.765-15.765c47.263 0 70.976-57.258 37.558-90.675a15.769 15.769 0 0 1 0-22.3l33.942-33.942a15.767 15.767 0 0 1 22.3 0c33.417 33.418 90.675 9.705 90.675-37.558A15.764 15.764 0 0 1 232 16h48a15.764 15.764 0 0 1 15.765 15.765c0 47.263 57.258 70.976 90.675 37.558a15.768 15.768 0 0 1 22.3 0l33.941 33.942a15.767 15.767 0 0 1 0 22.3c-33.418 33.417-9.705 90.675 37.558 90.675A15.764 15.764 0 0 1 496 232v48a15.764 15.764 0 0 1-15.765 15.765zm-77.27-39.809A146.965 146.965 0 1 0 256 402.965a146.966 146.966 0 0 0 146.965-147.01zM206.282 211.2A49.721 49.721 0 1 0 256 161.485a49.719 49.719 0 0 0-49.718 49.715zM256 289.573a107.576 107.576 0 0 0-95.815 58.62 132.961 132.961 0 0 0 191.624 0A107.563 107.563 0 0 0 256 289.573z" fill="#716f6f" opacity="1" data-original="#000000"></path></g></svg>